<mxfile host="app.diagrams.net" modified="2024-04-07T00:37:17.201Z" agent="Mozilla/5.0 (Macintosh; Intel Mac OS X 10_15_7) AppleWebKit/605.1.15 (KHTML, like Gecko) Version/17.2 Safari/605.1.15" etag="F6jtKjCJV43kc7SS-WCj" version="24.2.2" type="github">
  <diagram name="Page-1" id="E_kUktk8J8sw1iiAb2Os">
    <mxGraphModel dx="1867" dy="1723" grid="0" gridSize="10" guides="1" tooltips="1" connect="0" arrows="0" fold="1" page="0" pageScale="1" pageWidth="850" pageHeight="1100" math="0" shadow="0">
      <root>
        <mxCell id="0" />
        <mxCell id="1" parent="0" />
        <mxCell id="KdBbb8YaIj5lrnZJpPdu-3" value="&lt;table style=&quot;text-align: start; -webkit-text-size-adjust: auto; border-collapse: collapse; width: 302pt;&quot; width=&quot;403&quot;&gt;&lt;colgroup&gt;&lt;col style=&quot;width: 132pt;&quot; width=&quot;176&quot;&gt;&lt;col style=&quot;width: 170pt;&quot; width=&quot;227&quot;&gt;&lt;/colgroup&gt;&lt;tbody&gt;&lt;tr style=&quot;height: 15pt;&quot; height=&quot;20&quot;&gt;&lt;td style=&quot;padding-top: 1px; padding-right: 1px; padding-left: 1px; font-size: 11pt; font-family: Calibri, sans-serif; vertical-align: bottom; border-width: medium medium 0.5pt; border-style: none none solid; border-color: currentcolor currentcolor rgb(80, 80, 80); border-image: none; white-space: nowrap; text-align: center; background: rgb(180, 198, 231); width: 302pt; height: 15pt;&quot; class=&quot;xl33&quot; height=&quot;20&quot; width=&quot;403&quot; colspan=&quot;2&quot;&gt;Dimension_Student&lt;/td&gt;&lt;/tr&gt;&lt;tr style=&quot;height: 17.25pt;&quot; height=&quot;23&quot;&gt;&lt;td style=&quot;padding-top: 1px; padding-right: 1px; padding-left: 1px; font-size: 11pt; font-family: Calibri, sans-serif; vertical-align: bottom; border-width: 0.5pt medium 0.5pt 0.5pt; border-style: solid none solid solid; border-color: rgb(80, 80, 80) currentcolor rgb(80, 80, 80) rgb(80, 80, 80); border-image: none; white-space: nowrap; height: 17.25pt;&quot; class=&quot;xl23&quot; height=&quot;23&quot;&gt;PK&lt;/td&gt;&lt;td style=&quot;padding-top: 1px; padding-right: 1px; padding-left: 1px; font-size: 12pt; text-decoration: underline; font-family: &amp;quot;Segoe UI&amp;quot;, sans-serif; vertical-align: bottom; border: 0.5pt solid rgb(80, 80, 80); width: 170pt;&quot; class=&quot;xl24&quot; width=&quot;227&quot;&gt;Student_ID&lt;/td&gt;&lt;/tr&gt;&lt;tr style=&quot;height: 17.25pt;&quot; height=&quot;23&quot;&gt;&lt;td style=&quot;padding-top: 1px; padding-right: 1px; padding-left: 1px; font-size: 11pt; font-family: Calibri, sans-serif; vertical-align: bottom; border-width: medium medium medium 0.5pt; border-style: none none none solid; border-color: currentcolor currentcolor currentcolor rgb(80, 80, 80); border-image: none; white-space: nowrap; height: 17.25pt;&quot; class=&quot;xl16&quot; height=&quot;23&quot;&gt;&lt;/td&gt;&lt;td style=&quot;padding-top: 1px; padding-right: 1px; padding-left: 1px; font-size: 12pt; font-family: &amp;quot;Segoe UI&amp;quot;, sans-serif; vertical-align: bottom; border: 0.5pt solid rgb(80, 80, 80); width: 170pt;&quot; class=&quot;xl18&quot; width=&quot;227&quot;&gt;First_Name&lt;/td&gt;&lt;/tr&gt;&lt;tr style=&quot;height: 17.25pt;&quot; height=&quot;23&quot;&gt;&lt;td style=&quot;padding-top: 1px; padding-right: 1px; padding-left: 1px; font-size: 11pt; font-family: Calibri, sans-serif; vertical-align: bottom; border-width: medium medium medium 0.5pt; border-style: none none none solid; border-color: currentcolor currentcolor currentcolor rgb(80, 80, 80); border-image: none; white-space: nowrap; height: 17.25pt;&quot; class=&quot;xl16&quot; height=&quot;23&quot;&gt;&lt;/td&gt;&lt;td style=&quot;padding-top: 1px; padding-right: 1px; padding-left: 1px; font-size: 12pt; font-family: &amp;quot;Segoe UI&amp;quot;, sans-serif; vertical-align: bottom; border: 0.5pt solid rgb(80, 80, 80); width: 170pt;&quot; class=&quot;xl18&quot; width=&quot;227&quot;&gt;Last_Name&lt;/td&gt;&lt;/tr&gt;&lt;tr style=&quot;height: 17.25pt;&quot; height=&quot;23&quot;&gt;&lt;td style=&quot;padding-top: 1px; padding-right: 1px; padding-left: 1px; font-size: 11pt; font-family: Calibri, sans-serif; vertical-align: bottom; border-width: medium medium medium 0.5pt; border-style: none none none solid; border-color: currentcolor currentcolor currentcolor rgb(80, 80, 80); border-image: none; white-space: nowrap; height: 17.25pt;&quot; class=&quot;xl16&quot; height=&quot;23&quot;&gt;&lt;/td&gt;&lt;td style=&quot;padding-top: 1px; padding-right: 1px; padding-left: 1px; font-size: 12pt; font-family: &amp;quot;Segoe UI&amp;quot;, sans-serif; vertical-align: bottom; border: 0.5pt solid rgb(80, 80, 80); width: 170pt;&quot; class=&quot;xl18&quot; width=&quot;227&quot;&gt;Address&lt;/td&gt;&lt;/tr&gt;&lt;tr style=&quot;height: 17.25pt;&quot; height=&quot;23&quot;&gt;&lt;td style=&quot;padding-top: 1px; padding-right: 1px; padding-left: 1px; font-size: 11pt; font-family: Calibri, sans-serif; vertical-align: bottom; border-width: medium medium medium 0.5pt; border-style: none none none solid; border-color: currentcolor currentcolor currentcolor rgb(80, 80, 80); border-image: none; white-space: nowrap; height: 17.25pt;&quot; class=&quot;xl16&quot; height=&quot;23&quot;&gt;&lt;/td&gt;&lt;td style=&quot;padding-top: 1px; padding-right: 1px; padding-left: 1px; font-size: 12pt; font-family: &amp;quot;Segoe UI&amp;quot;, sans-serif; vertical-align: bottom; border: 0.5pt solid rgb(80, 80, 80); width: 170pt;&quot; class=&quot;xl18&quot; width=&quot;227&quot;&gt;State&lt;/td&gt;&lt;/tr&gt;&lt;tr style=&quot;height: 17.25pt;&quot; height=&quot;23&quot;&gt;&lt;td style=&quot;padding-top: 1px; padding-right: 1px; padding-left: 1px; font-size: 11pt; font-family: Calibri, sans-serif; vertical-align: bottom; border-width: medium medium medium 0.5pt; border-style: none none none solid; border-color: currentcolor currentcolor currentcolor rgb(80, 80, 80); border-image: none; white-space: nowrap; height: 17.25pt;&quot; class=&quot;xl16&quot; height=&quot;23&quot;&gt;&lt;/td&gt;&lt;td style=&quot;padding-top: 1px; padding-right: 1px; padding-left: 1px; font-size: 12pt; font-family: &amp;quot;Segoe UI&amp;quot;, sans-serif; vertical-align: bottom; border: 0.5pt solid rgb(80, 80, 80); width: 170pt;&quot; class=&quot;xl18&quot; width=&quot;227&quot;&gt;City&lt;/td&gt;&lt;/tr&gt;&lt;tr style=&quot;height: 17.25pt;&quot; height=&quot;23&quot;&gt;&lt;td style=&quot;padding-top: 1px; padding-right: 1px; padding-left: 1px; font-size: 11pt; font-family: Calibri, sans-serif; vertical-align: bottom; border-width: medium medium medium 0.5pt; border-style: none none none solid; border-color: currentcolor currentcolor currentcolor rgb(80, 80, 80); border-image: none; white-space: nowrap; height: 17.25pt;&quot; class=&quot;xl16&quot; height=&quot;23&quot;&gt;&lt;/td&gt;&lt;td style=&quot;padding-top: 1px; padding-right: 1px; padding-left: 1px; font-size: 12pt; font-family: &amp;quot;Segoe UI&amp;quot;, sans-serif; vertical-align: bottom; border: 0.5pt solid rgb(80, 80, 80); width: 170pt;&quot; class=&quot;xl18&quot; width=&quot;227&quot;&gt;Zip&lt;/td&gt;&lt;/tr&gt;&lt;tr style=&quot;height: 17.25pt;&quot; height=&quot;23&quot;&gt;&lt;td style=&quot;padding-top: 1px; padding-right: 1px; padding-left: 1px; font-size: 11pt; font-family: Calibri, sans-serif; vertical-align: bottom; border-width: medium medium medium 0.5pt; border-style: none none none solid; border-color: currentcolor currentcolor currentcolor rgb(80, 80, 80); border-image: none; white-space: nowrap; height: 17.25pt;&quot; class=&quot;xl16&quot; height=&quot;23&quot;&gt;&lt;/td&gt;&lt;td style=&quot;padding-top: 1px; padding-right: 1px; padding-left: 1px; font-size: 12pt; font-family: &amp;quot;Segoe UI&amp;quot;, sans-serif; vertical-align: bottom; border: 0.5pt solid rgb(80, 80, 80); width: 170pt;&quot; class=&quot;xl18&quot; width=&quot;227&quot;&gt;Start_Date&lt;/td&gt;&lt;/tr&gt;&lt;tr style=&quot;height: 17.25pt;&quot; height=&quot;23&quot;&gt;&lt;td style=&quot;padding-top: 1px; padding-right: 1px; padding-left: 1px; font-size: 11pt; font-family: Calibri, sans-serif; vertical-align: bottom; border-width: medium medium 0.5pt 0.5pt; border-style: none none solid solid; border-color: currentcolor currentcolor rgb(80, 80, 80) rgb(80, 80, 80); border-image: none; white-space: nowrap; height: 17.25pt;&quot; class=&quot;xl17&quot; height=&quot;23&quot;&gt;&lt;/td&gt;&lt;td style=&quot;padding-top: 1px; padding-right: 1px; padding-left: 1px; font-size: 12pt; font-family: &amp;quot;Segoe UI&amp;quot;, sans-serif; vertical-align: bottom; border: 0.5pt solid rgb(80, 80, 80); width: 170pt;&quot; class=&quot;xl18&quot; width=&quot;227&quot;&gt;GPA&lt;/td&gt;&lt;/tr&gt;&lt;/tbody&gt;&lt;/table&gt;" style="text;strokeColor=none;fillColor=none;html=1;align=center;verticalAlign=middle;whiteSpace=wrap;rounded=0;fontSize=16;" vertex="1" parent="1">
          <mxGeometry x="145" y="-92" width="424" height="269" as="geometry" />
        </mxCell>
        <mxCell id="KdBbb8YaIj5lrnZJpPdu-4" value="&lt;table style=&quot;text-align: start; -webkit-text-size-adjust: auto; border-collapse: collapse; width: 217pt;&quot; width=&quot;289&quot;&gt;&lt;colgroup&gt;&lt;col style=&quot;width: 128pt;&quot; width=&quot;170&quot;&gt;&lt;col style=&quot;width: 89pt;&quot; width=&quot;119&quot;&gt;&lt;/colgroup&gt;&lt;tbody&gt;&lt;tr style=&quot;height: 15pt;&quot; height=&quot;20&quot;&gt;&lt;td style=&quot;padding-top: 1px; padding-right: 1px; padding-left: 1px; font-size: 11pt; font-family: Calibri, sans-serif; vertical-align: bottom; border-width: medium medium 0.5pt; border-style: none none solid; border-color: currentcolor currentcolor rgb(80, 80, 80); border-image: none; white-space: nowrap; text-align: center; background: rgb(180, 198, 231); width: 217pt; height: 15pt;&quot; class=&quot;xl33&quot; height=&quot;20&quot; width=&quot;289&quot; colspan=&quot;2&quot;&gt;Dimension_Enrollment&lt;/td&gt;&lt;/tr&gt;&lt;tr style=&quot;height: 17.25pt;&quot; height=&quot;23&quot;&gt;&lt;td style=&quot;padding-top: 1px; padding-right: 1px; padding-left: 1px; font-size: 11pt; font-family: Calibri, sans-serif; vertical-align: bottom; border-width: 0.5pt medium medium 0.5pt; border-style: solid none none solid; border-color: rgb(80, 80, 80) currentcolor currentcolor rgb(80, 80, 80); border-image: none; white-space: nowrap; height: 17.25pt;&quot; class=&quot;xl20&quot; height=&quot;23&quot;&gt;FK&lt;/td&gt;&lt;td style=&quot;padding-top: 1px; padding-right: 1px; padding-left: 1px; font-size: 12pt; font-family: &amp;quot;Segoe UI&amp;quot;, sans-serif; vertical-align: bottom; border: 0.5pt solid rgb(80, 80, 80); width: 89pt;&quot; class=&quot;xl19&quot; width=&quot;119&quot;&gt;Student_ID&lt;/td&gt;&lt;/tr&gt;&lt;tr style=&quot;height: 17.25pt;&quot; height=&quot;23&quot;&gt;&lt;td style=&quot;padding-top: 1px; padding-right: 1px; padding-left: 1px; font-size: 11pt; font-family: Calibri, sans-serif; vertical-align: bottom; border-width: medium medium 0.5pt 0.5pt; border-style: none none solid solid; border-color: currentcolor currentcolor rgb(80, 80, 80) rgb(80, 80, 80); border-image: none; white-space: nowrap; height: 17.25pt;&quot; class=&quot;xl17&quot; height=&quot;23&quot;&gt;FK&lt;/td&gt;&lt;td style=&quot;padding-top: 1px; padding-right: 1px; padding-left: 1px; font-size: 12pt; font-family: &amp;quot;Segoe UI&amp;quot;, sans-serif; vertical-align: bottom; border: 0.5pt solid rgb(80, 80, 80); width: 89pt;&quot; class=&quot;xl19&quot; width=&quot;119&quot;&gt;Course_ID&lt;/td&gt;&lt;/tr&gt;&lt;/tbody&gt;&lt;/table&gt;" style="text;strokeColor=none;fillColor=none;html=1;align=center;verticalAlign=middle;whiteSpace=wrap;rounded=0;fontSize=16;" vertex="1" parent="1">
          <mxGeometry x="676" y="-52" width="319" height="94" as="geometry" />
        </mxCell>
        <mxCell id="KdBbb8YaIj5lrnZJpPdu-8" value="&lt;table style=&quot;text-align: start; -webkit-text-size-adjust: auto; border-collapse: collapse; width: 240pt;&quot; width=&quot;320&quot;&gt;&lt;colgroup&gt;&lt;col style=&quot;width: 48pt;&quot; width=&quot;64&quot;&gt;&lt;col style=&quot;width: 192pt;&quot; width=&quot;256&quot;&gt;&lt;/colgroup&gt;&lt;tbody&gt;&lt;tr style=&quot;height: 17.25pt;&quot; height=&quot;23&quot;&gt;&lt;td style=&quot;padding-top: 1px; padding-right: 1px; padding-left: 1px; font-size: 11pt; font-family: Calibri, sans-serif; vertical-align: bottom; border-width: medium medium 0.5pt; border-style: none none solid; border-color: currentcolor currentcolor rgb(80, 80, 80); border-image: none; white-space: nowrap; text-align: center; background: rgb(180, 198, 231); width: 240pt; height: 17.25pt;&quot; class=&quot;xl33&quot; height=&quot;23&quot; width=&quot;320&quot; colspan=&quot;2&quot;&gt;Dimension_Course&lt;/td&gt;&lt;/tr&gt;&lt;tr style=&quot;height: 17.25pt;&quot; height=&quot;23&quot;&gt;&lt;td style=&quot;padding-top: 1px; padding-right: 1px; padding-left: 1px; font-size: 11pt; font-family: Calibri, sans-serif; vertical-align: bottom; border-width: 0.5pt medium 0.5pt 0.5pt; border-style: solid none solid solid; border-color: rgb(80, 80, 80) currentcolor rgb(80, 80, 80) rgb(80, 80, 80); border-image: none; white-space: nowrap; height: 17.25pt;&quot; class=&quot;xl21&quot; height=&quot;23&quot;&gt;PK&lt;/td&gt;&lt;td style=&quot;padding-top: 1px; padding-right: 1px; padding-left: 1px; font-size: 12pt; text-decoration: underline; font-family: &amp;quot;Segoe UI&amp;quot;, sans-serif; vertical-align: bottom; border: 0.5pt solid rgb(80, 80, 80); width: 192pt;&quot; class=&quot;xl22&quot; width=&quot;256&quot;&gt;Course_ID&lt;/td&gt;&lt;/tr&gt;&lt;tr style=&quot;height: 17.25pt;&quot; height=&quot;23&quot;&gt;&lt;td style=&quot;padding-top: 1px; padding-right: 1px; padding-left: 1px; font-size: 11pt; font-family: Calibri, sans-serif; vertical-align: bottom; border-width: medium medium medium 0.5pt; border-style: none none none solid; border-color: currentcolor currentcolor currentcolor rgb(80, 80, 80); border-image: none; white-space: nowrap; height: 17.25pt;&quot; class=&quot;xl16&quot; height=&quot;23&quot;&gt;&lt;/td&gt;&lt;td style=&quot;padding-top: 1px; padding-right: 1px; padding-left: 1px; font-size: 12pt; font-family: &amp;quot;Segoe UI&amp;quot;, sans-serif; vertical-align: bottom; border: 0.5pt solid rgb(80, 80, 80); width: 192pt;&quot; class=&quot;xl19&quot; width=&quot;256&quot;&gt;Name&lt;/td&gt;&lt;/tr&gt;&lt;tr style=&quot;height: 17.25pt;&quot; height=&quot;23&quot;&gt;&lt;td style=&quot;padding-top: 1px; padding-right: 1px; padding-left: 1px; font-size: 11pt; font-family: Calibri, sans-serif; vertical-align: bottom; border-width: medium medium 0.5pt 0.5pt; border-style: none none solid solid; border-color: currentcolor currentcolor rgb(80, 80, 80) rgb(80, 80, 80); border-image: none; white-space: nowrap; height: 17.25pt;&quot; class=&quot;xl17&quot; height=&quot;23&quot;&gt;&lt;/td&gt;&lt;td style=&quot;padding-top: 1px; padding-right: 1px; padding-left: 1px; font-size: 12pt; font-family: &amp;quot;Segoe UI&amp;quot;, sans-serif; vertical-align: bottom; border: 0.5pt solid rgb(80, 80, 80); width: 192pt;&quot; class=&quot;xl19&quot; width=&quot;256&quot;&gt;Department&lt;/td&gt;&lt;/tr&gt;&lt;/tbody&gt;&lt;/table&gt;" style="text;strokeColor=none;fillColor=none;html=1;align=center;verticalAlign=middle;whiteSpace=wrap;rounded=0;fontSize=16;" vertex="1" parent="1">
          <mxGeometry x="1052" y="-92" width="333" height="119" as="geometry" />
        </mxCell>
        <UserObject label="" id="KdBbb8YaIj5lrnZJpPdu-41">
          <mxCell style="edgeStyle=entityRelationEdgeStyle;endArrow=ERone;startArrow=ERoneToMany;endFill=0;startFill=0;rounded=0;fontSize=12;startSize=10;endSize=10;curved=1;movable=1;resizable=1;rotatable=1;deletable=1;editable=1;locked=0;connectable=1;entryX=0.006;entryY=0.412;entryDx=0;entryDy=0;entryPerimeter=0;" edge="1" parent="1" source="KdBbb8YaIj5lrnZJpPdu-4">
            <mxGeometry width="100" height="100" relative="1" as="geometry">
              <mxPoint x="1012.0000000000005" y="-4.000000000000227" as="sourcePoint" />
              <mxPoint x="1071.9979999999996" y="-45.00200000000021" as="targetPoint" />
              <Array as="points">
                <mxPoint x="978" y="-11" />
                <mxPoint x="965" y="2" />
                <mxPoint x="1436" y="293.97" />
                <mxPoint x="1430" y="310.97" />
                <mxPoint x="1053" y="29" />
                <mxPoint x="1050" y="30" />
                <mxPoint x="1056" y="9" />
                <mxPoint x="1573" y="326.97" />
              </Array>
            </mxGeometry>
          </mxCell>
        </UserObject>
        <mxCell id="KdBbb8YaIj5lrnZJpPdu-40" value="" style="edgeStyle=entityRelationEdgeStyle;endArrow=ERoneToMany;startArrow=ERone;endFill=1;startFill=1;rounded=0;fontSize=12;startSize=8;endSize=8;curved=1;movable=1;resizable=1;rotatable=1;deletable=1;editable=1;locked=0;connectable=1;exitX=0.998;exitY=0.164;exitDx=0;exitDy=0;exitPerimeter=0;" edge="1" parent="1" source="KdBbb8YaIj5lrnZJpPdu-3">
          <mxGeometry width="100" height="100" relative="1" as="geometry">
            <mxPoint x="612" y="34" as="sourcePoint" />
            <mxPoint x="687" y="-2" as="targetPoint" />
            <Array as="points">
              <mxPoint x="625" y="-59" />
              <mxPoint x="785" y="54" />
              <mxPoint x="642" y="-51" />
              <mxPoint x="308" y="-138" />
              <mxPoint x="642" y="30" />
              <mxPoint x="671" y="7" />
              <mxPoint x="670" y="1" />
              <mxPoint x="638" y="-10" />
              <mxPoint x="667" y="-20" />
              <mxPoint x="636" y="-3" />
              <mxPoint x="640" y="-5" />
            </Array>
          </mxGeometry>
        </mxCell>
        <mxCell id="KdBbb8YaIj5lrnZJpPdu-92" value="&lt;table width=&quot;403&quot; style=&quot;caret-color: rgb(0, 0, 0); color: rgb(0, 0, 0); font-style: normal; font-variant-caps: normal; font-weight: 400; letter-spacing: normal; orphans: auto; text-align: start; text-transform: none; white-space: normal; widows: auto; word-spacing: 0px; -webkit-tap-highlight-color: rgba(26, 26, 26, 0.3); -webkit-text-size-adjust: auto; -webkit-text-stroke-width: 0px; text-decoration: none; border-collapse: collapse; width: 302pt;&quot;&gt;&lt;colgroup&gt;&lt;col width=&quot;176&quot; style=&quot;width: 132pt;&quot;&gt;&lt;col width=&quot;227&quot; style=&quot;width: 170pt;&quot;&gt;&lt;/colgroup&gt;&lt;tbody&gt;&lt;tr height=&quot;20&quot; style=&quot;height: 15pt;&quot;&gt;&lt;td colspan=&quot;2&quot; width=&quot;403&quot; height=&quot;20&quot; class=&quot;xl41&quot; style=&quot;padding-top: 1px; padding-right: 1px; padding-left: 1px; color: black; font-size: 11pt; font-weight: 400; font-style: normal; text-decoration: none; font-family: Calibri, sans-serif; vertical-align: bottom; border: medium; white-space: nowrap; text-align: center; background: rgb(180, 198, 231); width: 302pt; height: 15pt;&quot;&gt;Dimension_Customer&lt;/td&gt;&lt;/tr&gt;&lt;tr height=&quot;23&quot; style=&quot;height: 17.25pt;&quot;&gt;&lt;td height=&quot;23&quot; class=&quot;xl34&quot; style=&quot;padding-top: 1px; padding-right: 1px; padding-left: 1px; color: black; font-size: 11pt; font-weight: 400; font-style: normal; text-decoration: none; font-family: Calibri, sans-serif; vertical-align: bottom; border-width: 0.5pt medium 0.5pt 0.5pt; border-style: solid none solid solid; border-color: rgb(80, 80, 80) currentcolor rgb(80, 80, 80) rgb(80, 80, 80); border-image: none; white-space: nowrap; height: 17.25pt;&quot;&gt;PK&lt;/td&gt;&lt;td width=&quot;227&quot; class=&quot;xl39&quot; style=&quot;padding-top: 1px; padding-right: 1px; padding-left: 1px; color: black; font-size: 12pt; font-weight: 700; font-style: normal; text-decoration: underline; font-family: &amp;quot;Segoe UI&amp;quot;, sans-serif; vertical-align: bottom; border: 0.5pt solid rgb(80, 80, 80); white-space: normal; width: 170pt;&quot;&gt;Customer_Account_ID&lt;/td&gt;&lt;/tr&gt;&lt;tr height=&quot;23&quot; style=&quot;height: 17.25pt;&quot;&gt;&lt;td height=&quot;23&quot; class=&quot;xl16&quot; style=&quot;padding-top: 1px; padding-right: 1px; padding-left: 1px; color: black; font-size: 11pt; font-weight: 400; font-style: normal; text-decoration: none; font-family: Calibri, sans-serif; vertical-align: bottom; border-width: medium medium medium 0.5pt; border-style: none none none solid; border-color: currentcolor currentcolor currentcolor rgb(80, 80, 80); border-image: none; white-space: nowrap; height: 17.25pt;&quot;&gt;&lt;/td&gt;&lt;td width=&quot;227&quot; class=&quot;xl35&quot; style=&quot;padding-top: 1px; padding-right: 1px; padding-left: 1px; color: black; font-size: 12pt; font-weight: 400; font-style: normal; text-decoration: none; font-family: &amp;quot;Segoe UI&amp;quot;, sans-serif; vertical-align: bottom; border-width: medium 0.5pt 0.5pt; border-style: none solid solid; border-color: currentcolor rgb(80, 80, 80) rgb(80, 80, 80); border-image: none; white-space: normal; width: 170pt;&quot;&gt;Customer_First_Name&lt;/td&gt;&lt;/tr&gt;&lt;tr height=&quot;23&quot; style=&quot;height: 17.25pt;&quot;&gt;&lt;td height=&quot;23&quot; class=&quot;xl16&quot; style=&quot;padding-top: 1px; padding-right: 1px; padding-left: 1px; color: black; font-size: 11pt; font-weight: 400; font-style: normal; text-decoration: none; font-family: Calibri, sans-serif; vertical-align: bottom; border-width: medium medium medium 0.5pt; border-style: none none none solid; border-color: currentcolor currentcolor currentcolor rgb(80, 80, 80); border-image: none; white-space: nowrap; height: 17.25pt;&quot;&gt;&lt;/td&gt;&lt;td width=&quot;227&quot; class=&quot;xl19&quot; style=&quot;padding-top: 1px; padding-right: 1px; padding-left: 1px; color: black; font-size: 12pt; font-weight: 400; font-style: normal; text-decoration: none; font-family: &amp;quot;Segoe UI&amp;quot;, sans-serif; vertical-align: bottom; border: 0.5pt solid rgb(80, 80, 80); white-space: normal; width: 170pt;&quot;&gt;Customer_Last_Name&lt;/td&gt;&lt;/tr&gt;&lt;tr height=&quot;23&quot; style=&quot;height: 17.25pt;&quot;&gt;&lt;td height=&quot;23&quot; class=&quot;xl16&quot; style=&quot;padding-top: 1px; padding-right: 1px; padding-left: 1px; color: black; font-size: 11pt; font-weight: 400; font-style: normal; text-decoration: none; font-family: Calibri, sans-serif; vertical-align: bottom; border-width: medium medium medium 0.5pt; border-style: none none none solid; border-color: currentcolor currentcolor currentcolor rgb(80, 80, 80); border-image: none; white-space: nowrap; height: 17.25pt;&quot;&gt;&lt;/td&gt;&lt;td width=&quot;227&quot; class=&quot;xl19&quot; style=&quot;padding-top: 1px; padding-right: 1px; padding-left: 1px; color: black; font-size: 12pt; font-weight: 400; font-style: normal; text-decoration: none; font-family: &amp;quot;Segoe UI&amp;quot;, sans-serif; vertical-align: bottom; border: 0.5pt solid rgb(80, 80, 80); white-space: normal; width: 170pt;&quot;&gt;Customer_Address&lt;/td&gt;&lt;/tr&gt;&lt;tr height=&quot;23&quot; style=&quot;height: 17.25pt;&quot;&gt;&lt;td height=&quot;23&quot; class=&quot;xl16&quot; style=&quot;padding-top: 1px; padding-right: 1px; padding-left: 1px; color: black; font-size: 11pt; font-weight: 400; font-style: normal; text-decoration: none; font-family: Calibri, sans-serif; vertical-align: bottom; border-width: medium medium medium 0.5pt; border-style: none none none solid; border-color: currentcolor currentcolor currentcolor rgb(80, 80, 80); border-image: none; white-space: nowrap; height: 17.25pt;&quot;&gt;&lt;/td&gt;&lt;td width=&quot;227&quot; class=&quot;xl19&quot; style=&quot;padding-top: 1px; padding-right: 1px; padding-left: 1px; color: black; font-size: 12pt; font-weight: 400; font-style: normal; text-decoration: none; font-family: &amp;quot;Segoe UI&amp;quot;, sans-serif; vertical-align: bottom; border: 0.5pt solid rgb(80, 80, 80); white-space: normal; width: 170pt;&quot;&gt;Customer_City&lt;/td&gt;&lt;/tr&gt;&lt;tr height=&quot;23&quot; style=&quot;height: 17.25pt;&quot;&gt;&lt;td height=&quot;23&quot; class=&quot;xl16&quot; style=&quot;padding-top: 1px; padding-right: 1px; padding-left: 1px; color: black; font-size: 11pt; font-weight: 400; font-style: normal; text-decoration: none; font-family: Calibri, sans-serif; vertical-align: bottom; border-width: medium medium medium 0.5pt; border-style: none none none solid; border-color: currentcolor currentcolor currentcolor rgb(80, 80, 80); border-image: none; white-space: nowrap; height: 17.25pt;&quot;&gt;&lt;/td&gt;&lt;td width=&quot;227&quot; class=&quot;xl19&quot; style=&quot;padding-top: 1px; padding-right: 1px; padding-left: 1px; color: black; font-size: 12pt; font-weight: 400; font-style: normal; text-decoration: none; font-family: &amp;quot;Segoe UI&amp;quot;, sans-serif; vertical-align: bottom; border: 0.5pt solid rgb(80, 80, 80); white-space: normal; width: 170pt;&quot;&gt;Customer_State&lt;/td&gt;&lt;/tr&gt;&lt;tr height=&quot;23&quot; style=&quot;height: 17.25pt;&quot;&gt;&lt;td height=&quot;23&quot; class=&quot;xl16&quot; style=&quot;padding-top: 1px; padding-right: 1px; padding-left: 1px; color: black; font-size: 11pt; font-weight: 400; font-style: normal; text-decoration: none; font-family: Calibri, sans-serif; vertical-align: bottom; border-width: medium medium medium 0.5pt; border-style: none none none solid; border-color: currentcolor currentcolor currentcolor rgb(80, 80, 80); border-image: none; white-space: nowrap; height: 17.25pt;&quot;&gt;&lt;/td&gt;&lt;td width=&quot;227&quot; class=&quot;xl19&quot; style=&quot;padding-top: 1px; padding-right: 1px; padding-left: 1px; color: black; font-size: 12pt; font-weight: 400; font-style: normal; text-decoration: none; font-family: &amp;quot;Segoe UI&amp;quot;, sans-serif; vertical-align: bottom; border: 0.5pt solid rgb(80, 80, 80); white-space: normal; width: 170pt;&quot;&gt;Customer_Zip&lt;/td&gt;&lt;/tr&gt;&lt;tr height=&quot;23&quot; style=&quot;height: 17.25pt;&quot;&gt;&lt;td height=&quot;23&quot; class=&quot;xl16&quot; style=&quot;padding-top: 1px; padding-right: 1px; padding-left: 1px; color: black; font-size: 11pt; font-weight: 400; font-style: normal; text-decoration: none; font-family: Calibri, sans-serif; vertical-align: bottom; border-width: medium medium medium 0.5pt; border-style: none none none solid; border-color: currentcolor currentcolor currentcolor rgb(80, 80, 80); border-image: none; white-space: nowrap; height: 17.25pt;&quot;&gt;&lt;/td&gt;&lt;td width=&quot;227&quot; class=&quot;xl19&quot; style=&quot;padding-top: 1px; padding-right: 1px; padding-left: 1px; color: black; font-size: 12pt; font-weight: 400; font-style: normal; text-decoration: none; font-family: &amp;quot;Segoe UI&amp;quot;, sans-serif; vertical-align: bottom; border: 0.5pt solid rgb(80, 80, 80); white-space: normal; width: 170pt;&quot;&gt;Customer_Phone_Number&lt;/td&gt;&lt;/tr&gt;&lt;tr height=&quot;23&quot; style=&quot;height: 17.25pt;&quot;&gt;&lt;td height=&quot;23&quot; class=&quot;xl17&quot; style=&quot;padding-top: 1px; padding-right: 1px; padding-left: 1px; color: black; font-size: 11pt; font-weight: 400; font-style: normal; text-decoration: none; font-family: Calibri, sans-serif; vertical-align: bottom; border-width: medium medium 0.5pt 0.5pt; border-style: none none solid solid; border-color: currentcolor currentcolor rgb(80, 80, 80) rgb(80, 80, 80); border-image: none; white-space: nowrap; height: 17.25pt;&quot;&gt;&lt;/td&gt;&lt;td width=&quot;227&quot; class=&quot;xl19&quot; style=&quot;padding-top: 1px; padding-right: 1px; padding-left: 1px; color: black; font-size: 12pt; font-weight: 400; font-style: normal; text-decoration: none; font-family: &amp;quot;Segoe UI&amp;quot;, sans-serif; vertical-align: bottom; border: 0.5pt solid rgb(80, 80, 80); white-space: normal; width: 170pt;&quot;&gt;Customer_Age&lt;/td&gt;&lt;/tr&gt;&lt;/tbody&gt;&lt;/table&gt;" style="text;whiteSpace=wrap;html=1;" vertex="1" parent="1">
          <mxGeometry x="1218" y="765" width="431" height="271" as="geometry" />
        </mxCell>
        <mxCell id="KdBbb8YaIj5lrnZJpPdu-93" value="&lt;table width=&quot;512&quot; style=&quot;caret-color: rgb(0, 0, 0); color: rgb(0, 0, 0); font-style: normal; font-variant-caps: normal; font-weight: 400; letter-spacing: normal; orphans: auto; text-align: start; text-transform: none; white-space: normal; widows: auto; word-spacing: 0px; -webkit-tap-highlight-color: rgba(26, 26, 26, 0.3); -webkit-text-size-adjust: auto; -webkit-text-stroke-width: 0px; text-decoration: none; border-collapse: collapse; width: 384pt;&quot;&gt;&lt;colgroup&gt;&lt;col width=&quot;256&quot; span=&quot;2&quot; style=&quot;width: 192pt;&quot;&gt;&lt;/colgroup&gt;&lt;tbody&gt;&lt;tr height=&quot;23&quot; style=&quot;height: 17.25pt;&quot;&gt;&lt;td colspan=&quot;2&quot; width=&quot;512&quot; height=&quot;23&quot; class=&quot;xl41&quot; style=&quot;padding-top: 1px; padding-right: 1px; padding-left: 1px; color: black; font-size: 11pt; font-weight: 400; font-style: normal; text-decoration: none; font-family: Calibri, sans-serif; vertical-align: bottom; border: medium; white-space: nowrap; text-align: center; background: rgb(180, 198, 231); width: 384pt; height: 17.25pt;&quot;&gt;Dimension_Order&lt;/td&gt;&lt;/tr&gt;&lt;tr height=&quot;23&quot; style=&quot;height: 17.25pt;&quot;&gt;&lt;td height=&quot;23&quot; class=&quot;xl94&quot; style=&quot;padding-top: 1px; padding-right: 1px; padding-left: 1px; color: black; font-size: 11pt; font-weight: 400; font-style: normal; text-decoration: underline; font-family: Calibri, sans-serif; vertical-align: bottom; border-width: 0.5pt medium 0.5pt 0.5pt; border-style: solid none solid solid; border-color: rgb(80, 80, 80) currentcolor rgb(80, 80, 80) rgb(80, 80, 80); border-image: none; white-space: nowrap; height: 17.25pt;&quot;&gt;PK&lt;/td&gt;&lt;td width=&quot;256&quot; class=&quot;xl98&quot; style=&quot;padding-top: 1px; padding-right: 1px; padding-left: 1px; color: black; font-size: 12pt; font-weight: 400; font-style: normal; text-decoration: underline; font-family: &amp;quot;Segoe UI&amp;quot;, sans-serif; vertical-align: bottom; border: 0.5pt solid rgb(80, 80, 80); white-space: normal; width: 192pt;&quot;&gt;Order_ID&lt;/td&gt;&lt;/tr&gt;&lt;tr height=&quot;23&quot; style=&quot;height: 17.25pt;&quot;&gt;&lt;td height=&quot;23&quot; class=&quot;xl96&quot; style=&quot;padding-top: 1px; padding-right: 1px; padding-left: 1px; color: black; font-size: 11pt; font-weight: 400; font-style: normal; text-decoration: underline; font-family: Calibri, sans-serif; vertical-align: bottom; border-width: medium medium medium 0.5pt; border-style: none none none solid; border-color: currentcolor currentcolor currentcolor rgb(80, 80, 80); border-image: none; white-space: nowrap; height: 17.25pt;&quot;&gt;FK&lt;/td&gt;&lt;td width=&quot;256&quot; class=&quot;xl98&quot; style=&quot;padding-top: 1px; padding-right: 1px; padding-left: 1px; color: black; font-size: 12pt; font-weight: 400; font-style: normal; text-decoration: underline; font-family: &amp;quot;Segoe UI&amp;quot;, sans-serif; vertical-align: bottom; border: 0.5pt solid rgb(80, 80, 80); white-space: normal; width: 192pt;&quot;&gt;Customer_Account_ID&lt;/td&gt;&lt;/tr&gt;&lt;tr height=&quot;23&quot; style=&quot;height: 17.25pt;&quot;&gt;&lt;td height=&quot;23&quot; class=&quot;xl96&quot; style=&quot;padding-top: 1px; padding-right: 1px; padding-left: 1px; color: black; font-size: 11pt; font-weight: 400; font-style: normal; text-decoration: underline; font-family: Calibri, sans-serif; vertical-align: bottom; border-width: medium medium medium 0.5pt; border-style: none none none solid; border-color: currentcolor currentcolor currentcolor rgb(80, 80, 80); border-image: none; white-space: nowrap; height: 17.25pt;&quot;&gt;FK&lt;/td&gt;&lt;td width=&quot;256&quot; class=&quot;xl98&quot; style=&quot;padding-top: 1px; padding-right: 1px; padding-left: 1px; color: black; font-size: 12pt; font-weight: 400; font-style: normal; text-decoration: underline; font-family: &amp;quot;Segoe UI&amp;quot;, sans-serif; vertical-align: bottom; border: 0.5pt solid rgb(80, 80, 80); white-space: normal; width: 192pt;&quot;&gt;Product_ID&lt;/td&gt;&lt;/tr&gt;&lt;tr height=&quot;23&quot; style=&quot;height: 17.25pt;&quot;&gt;&lt;td height=&quot;23&quot; class=&quot;xl97&quot; style=&quot;padding-top: 1px; padding-right: 1px; padding-left: 1px; color: black; font-size: 11pt; font-weight: 400; font-style: normal; text-decoration: underline; font-family: Calibri, sans-serif; vertical-align: bottom; border-width: medium medium 0.5pt 0.5pt; border-style: none none solid solid; border-color: currentcolor currentcolor rgb(80, 80, 80) rgb(80, 80, 80); border-image: none; white-space: nowrap; height: 17.25pt;&quot;&gt;FK&lt;/td&gt;&lt;td width=&quot;256&quot; class=&quot;xl98&quot; style=&quot;padding-top: 1px; padding-right: 1px; padding-left: 1px; color: black; font-size: 12pt; font-weight: 400; font-style: normal; text-decoration: underline; font-family: &amp;quot;Segoe UI&amp;quot;, sans-serif; vertical-align: bottom; border: 0.5pt solid rgb(80, 80, 80); white-space: normal; width: 192pt;&quot;&gt;Shipment_ID&lt;/td&gt;&lt;/tr&gt;&lt;/tbody&gt;&lt;/table&gt;" style="text;whiteSpace=wrap;html=1;" vertex="1" parent="1">
          <mxGeometry x="510" y="616" width="550" height="149" as="geometry" />
        </mxCell>
        <mxCell id="KdBbb8YaIj5lrnZJpPdu-94" value="&lt;table width=&quot;379&quot; style=&quot;caret-color: rgb(0, 0, 0); color: rgb(0, 0, 0); font-style: normal; font-variant-caps: normal; font-weight: 400; letter-spacing: normal; orphans: auto; text-align: start; text-transform: none; white-space: normal; widows: auto; word-spacing: 0px; -webkit-tap-highlight-color: rgba(26, 26, 26, 0.3); -webkit-text-size-adjust: auto; -webkit-text-stroke-width: 0px; text-decoration: none; border-collapse: collapse; width: 284pt;&quot;&gt;&lt;colgroup&gt;&lt;col width=&quot;123&quot; style=&quot;width: 92pt;&quot;&gt;&lt;col width=&quot;256&quot; style=&quot;width: 192pt;&quot;&gt;&lt;/colgroup&gt;&lt;tbody&gt;&lt;tr height=&quot;20&quot; style=&quot;height: 15pt;&quot;&gt;&lt;td colspan=&quot;2&quot; width=&quot;379&quot; height=&quot;20&quot; class=&quot;xl41&quot; style=&quot;padding-top: 1px; padding-right: 1px; padding-left: 1px; color: black; font-size: 11pt; font-weight: 400; font-style: normal; text-decoration: none; font-family: Calibri, sans-serif; vertical-align: bottom; border: medium; white-space: nowrap; text-align: center; background: rgb(180, 198, 231); width: 284pt; height: 15pt;&quot;&gt;Dimension_Vendors&lt;/td&gt;&lt;/tr&gt;&lt;tr height=&quot;23&quot; style=&quot;height: 17.25pt;&quot;&gt;&lt;td height=&quot;23&quot; class=&quot;xl34&quot; style=&quot;padding-top: 1px; padding-right: 1px; padding-left: 1px; color: black; font-size: 11pt; font-weight: 400; font-style: normal; text-decoration: none; font-family: Calibri, sans-serif; vertical-align: bottom; border-width: 0.5pt medium 0.5pt 0.5pt; border-style: solid none solid solid; border-color: rgb(80, 80, 80) currentcolor rgb(80, 80, 80) rgb(80, 80, 80); border-image: none; white-space: nowrap; height: 17.25pt;&quot;&gt;PK&lt;/td&gt;&lt;td width=&quot;256&quot; class=&quot;xl39&quot; style=&quot;padding-top: 1px; padding-right: 1px; padding-left: 1px; color: black; font-size: 12pt; font-weight: 700; font-style: normal; text-decoration: underline; font-family: &amp;quot;Segoe UI&amp;quot;, sans-serif; vertical-align: bottom; border: 0.5pt solid rgb(80, 80, 80); white-space: normal; width: 192pt;&quot;&gt;Vendor_ID&lt;/td&gt;&lt;/tr&gt;&lt;tr height=&quot;23&quot; style=&quot;height: 17.25pt;&quot;&gt;&lt;td height=&quot;23&quot; class=&quot;xl16&quot; style=&quot;padding-top: 1px; padding-right: 1px; padding-left: 1px; color: black; font-size: 11pt; font-weight: 400; font-style: normal; text-decoration: none; font-family: Calibri, sans-serif; vertical-align: bottom; border-width: medium medium medium 0.5pt; border-style: none none none solid; border-color: currentcolor currentcolor currentcolor rgb(80, 80, 80); border-image: none; white-space: nowrap; height: 17.25pt;&quot;&gt;&lt;/td&gt;&lt;td width=&quot;256&quot; class=&quot;xl19&quot; style=&quot;padding-top: 1px; padding-right: 1px; padding-left: 1px; color: black; font-size: 12pt; font-weight: 400; font-style: normal; text-decoration: none; font-family: &amp;quot;Segoe UI&amp;quot;, sans-serif; vertical-align: bottom; border: 0.5pt solid rgb(80, 80, 80); white-space: normal; width: 192pt;&quot;&gt;Vendor_Name&lt;/td&gt;&lt;/tr&gt;&lt;tr height=&quot;23&quot; style=&quot;height: 17.25pt;&quot;&gt;&lt;td height=&quot;23&quot; class=&quot;xl16&quot; style=&quot;padding-top: 1px; padding-right: 1px; padding-left: 1px; color: black; font-size: 11pt; font-weight: 400; font-style: normal; text-decoration: none; font-family: Calibri, sans-serif; vertical-align: bottom; border-width: medium medium medium 0.5pt; border-style: none none none solid; border-color: currentcolor currentcolor currentcolor rgb(80, 80, 80); border-image: none; white-space: nowrap; height: 17.25pt;&quot;&gt;&lt;/td&gt;&lt;td width=&quot;256&quot; class=&quot;xl19&quot; style=&quot;padding-top: 1px; padding-right: 1px; padding-left: 1px; color: black; font-size: 12pt; font-weight: 400; font-style: normal; text-decoration: none; font-family: &amp;quot;Segoe UI&amp;quot;, sans-serif; vertical-align: bottom; border: 0.5pt solid rgb(80, 80, 80); white-space: normal; width: 192pt;&quot;&gt;Vendor_Account_Number&lt;/td&gt;&lt;/tr&gt;&lt;tr height=&quot;23&quot; style=&quot;height: 17.25pt;&quot;&gt;&lt;td height=&quot;23&quot; class=&quot;xl16&quot; style=&quot;padding-top: 1px; padding-right: 1px; padding-left: 1px; color: black; font-size: 11pt; font-weight: 400; font-style: normal; text-decoration: none; font-family: Calibri, sans-serif; vertical-align: bottom; border-width: medium medium medium 0.5pt; border-style: none none none solid; border-color: currentcolor currentcolor currentcolor rgb(80, 80, 80); border-image: none; white-space: nowrap; height: 17.25pt;&quot;&gt;&lt;/td&gt;&lt;td width=&quot;256&quot; class=&quot;xl19&quot; style=&quot;padding-top: 1px; padding-right: 1px; padding-left: 1px; color: black; font-size: 12pt; font-weight: 400; font-style: normal; text-decoration: none; font-family: &amp;quot;Segoe UI&amp;quot;, sans-serif; vertical-align: bottom; border: 0.5pt solid rgb(80, 80, 80); white-space: normal; width: 192pt;&quot;&gt;Vendor_Address&lt;/td&gt;&lt;/tr&gt;&lt;tr height=&quot;23&quot; style=&quot;height: 17.25pt;&quot;&gt;&lt;td height=&quot;23&quot; class=&quot;xl16&quot; style=&quot;padding-top: 1px; padding-right: 1px; padding-left: 1px; color: black; font-size: 11pt; font-weight: 400; font-style: normal; text-decoration: none; font-family: Calibri, sans-serif; vertical-align: bottom; border-width: medium medium medium 0.5pt; border-style: none none none solid; border-color: currentcolor currentcolor currentcolor rgb(80, 80, 80); border-image: none; white-space: nowrap; height: 17.25pt;&quot;&gt;&lt;/td&gt;&lt;td width=&quot;256&quot; class=&quot;xl19&quot; style=&quot;padding-top: 1px; padding-right: 1px; padding-left: 1px; color: black; font-size: 12pt; font-weight: 400; font-style: normal; text-decoration: none; font-family: &amp;quot;Segoe UI&amp;quot;, sans-serif; vertical-align: bottom; border: 0.5pt solid rgb(80, 80, 80); white-space: normal; width: 192pt;&quot;&gt;Vendor_State&lt;/td&gt;&lt;/tr&gt;&lt;tr height=&quot;23&quot; style=&quot;height: 17.25pt;&quot;&gt;&lt;td height=&quot;23&quot; class=&quot;xl16&quot; style=&quot;padding-top: 1px; padding-right: 1px; padding-left: 1px; color: black; font-size: 11pt; font-weight: 400; font-style: normal; text-decoration: none; font-family: Calibri, sans-serif; vertical-align: bottom; border-width: medium medium medium 0.5pt; border-style: none none none solid; border-color: currentcolor currentcolor currentcolor rgb(80, 80, 80); border-image: none; white-space: nowrap; height: 17.25pt;&quot;&gt;&lt;/td&gt;&lt;td width=&quot;256&quot; class=&quot;xl19&quot; style=&quot;padding-top: 1px; padding-right: 1px; padding-left: 1px; color: black; font-size: 12pt; font-weight: 400; font-style: normal; text-decoration: none; font-family: &amp;quot;Segoe UI&amp;quot;, sans-serif; vertical-align: bottom; border: 0.5pt solid rgb(80, 80, 80); white-space: normal; width: 192pt;&quot;&gt;Vendor_City&lt;/td&gt;&lt;/tr&gt;&lt;tr height=&quot;23&quot; style=&quot;height: 17.25pt;&quot;&gt;&lt;td height=&quot;23&quot; class=&quot;xl16&quot; style=&quot;padding-top: 1px; padding-right: 1px; padding-left: 1px; color: black; font-size: 11pt; font-weight: 400; font-style: normal; text-decoration: none; font-family: Calibri, sans-serif; vertical-align: bottom; border-width: medium medium medium 0.5pt; border-style: none none none solid; border-color: currentcolor currentcolor currentcolor rgb(80, 80, 80); border-image: none; white-space: nowrap; height: 17.25pt;&quot;&gt;&lt;/td&gt;&lt;td width=&quot;256&quot; class=&quot;xl19&quot; style=&quot;padding-top: 1px; padding-right: 1px; padding-left: 1px; color: black; font-size: 12pt; font-weight: 400; font-style: normal; text-decoration: none; font-family: &amp;quot;Segoe UI&amp;quot;, sans-serif; vertical-align: bottom; border: 0.5pt solid rgb(80, 80, 80); white-space: normal; width: 192pt;&quot;&gt;Vendor_Zip&lt;/td&gt;&lt;/tr&gt;&lt;tr height=&quot;23&quot; style=&quot;height: 17.25pt;&quot;&gt;&lt;td height=&quot;23&quot; class=&quot;xl16&quot; style=&quot;padding-top: 1px; padding-right: 1px; padding-left: 1px; color: black; font-size: 11pt; font-weight: 400; font-style: normal; text-decoration: none; font-family: Calibri, sans-serif; vertical-align: bottom; border-width: medium medium medium 0.5pt; border-style: none none none solid; border-color: currentcolor currentcolor currentcolor rgb(80, 80, 80); border-image: none; white-space: nowrap; height: 17.25pt;&quot;&gt;&lt;/td&gt;&lt;td width=&quot;256&quot; class=&quot;xl19&quot; style=&quot;padding-top: 1px; padding-right: 1px; padding-left: 1px; color: black; font-size: 12pt; font-weight: 400; font-style: normal; text-decoration: none; font-family: &amp;quot;Segoe UI&amp;quot;, sans-serif; vertical-align: bottom; border: 0.5pt solid rgb(80, 80, 80); white-space: normal; width: 192pt;&quot;&gt;Vendor_Phone_Number&lt;/td&gt;&lt;/tr&gt;&lt;tr height=&quot;23&quot; style=&quot;height: 17.25pt;&quot;&gt;&lt;td height=&quot;23&quot; class=&quot;xl17&quot; style=&quot;padding-top: 1px; padding-right: 1px; padding-left: 1px; color: black; font-size: 11pt; font-weight: 400; font-style: normal; text-decoration: none; font-family: Calibri, sans-serif; vertical-align: bottom; border-width: medium medium 0.5pt 0.5pt; border-style: none none solid solid; border-color: currentcolor currentcolor rgb(80, 80, 80) rgb(80, 80, 80); border-image: none; white-space: nowrap; height: 17.25pt;&quot;&gt;&lt;/td&gt;&lt;td width=&quot;256&quot; class=&quot;xl19&quot; style=&quot;padding-top: 1px; padding-right: 1px; padding-left: 1px; color: black; font-size: 12pt; font-weight: 400; font-style: normal; text-decoration: none; font-family: &amp;quot;Segoe UI&amp;quot;, sans-serif; vertical-align: bottom; border: 0.5pt solid rgb(80, 80, 80); white-space: normal; width: 192pt;&quot;&gt;Vendor_Point_of_Contact&lt;/td&gt;&lt;/tr&gt;&lt;/tbody&gt;&lt;/table&gt;" style="text;whiteSpace=wrap;html=1;" vertex="1" parent="1">
          <mxGeometry x="66" y="384" width="407" height="271" as="geometry" />
        </mxCell>
        <mxCell id="KdBbb8YaIj5lrnZJpPdu-97" value="" style="edgeStyle=entityRelationEdgeStyle;endArrow=ERoneToMany;startArrow=ERone;endFill=1;startFill=1;rounded=0;fontSize=12;startSize=8;endSize=8;curved=1;movable=1;resizable=1;rotatable=1;deletable=1;editable=1;locked=0;connectable=1;exitX=0.998;exitY=0.164;exitDx=0;exitDy=0;exitPerimeter=0;" edge="1" parent="1">
          <mxGeometry width="100" height="100" relative="1" as="geometry">
            <mxPoint x="568" y="-48" as="sourcePoint" />
            <mxPoint x="687" y="-2" as="targetPoint" />
            <Array as="points">
              <mxPoint x="625" y="-59" />
              <mxPoint x="785" y="54" />
              <mxPoint x="642" y="-51" />
              <mxPoint x="308" y="-138" />
              <mxPoint x="642" y="30" />
              <mxPoint x="671" y="7" />
              <mxPoint x="670" y="1" />
              <mxPoint x="638" y="-10" />
              <mxPoint x="667" y="-20" />
              <mxPoint x="636" y="-3" />
              <mxPoint x="640" y="-5" />
            </Array>
          </mxGeometry>
        </mxCell>
        <mxCell id="KdBbb8YaIj5lrnZJpPdu-98" value="" style="edgeStyle=entityRelationEdgeStyle;endArrow=ERmany;startArrow=ERmany;endFill=0;startFill=0;rounded=0;fontSize=12;startSize=13;endSize=13;curved=1;movable=1;resizable=1;rotatable=1;deletable=1;editable=1;locked=0;connectable=1;entryX=0.014;entryY=0.166;entryDx=0;entryDy=0;entryPerimeter=0;exitX=0.915;exitY=0.5;exitDx=0;exitDy=0;exitPerimeter=0;" edge="1" parent="1" source="KdBbb8YaIj5lrnZJpPdu-93">
          <mxGeometry width="100" height="100" relative="1" as="geometry">
            <mxPoint x="1067" y="761" as="sourcePoint" />
            <mxPoint x="1202.034" y="825.9859999999999" as="targetPoint" />
            <Array as="points">
              <mxPoint x="1022" y="691" />
              <mxPoint x="1045" y="699" />
              <mxPoint x="1030" y="709" />
              <mxPoint x="1020" y="702" />
              <mxPoint x="1040" y="718" />
              <mxPoint x="1131" y="847" />
              <mxPoint x="1144" y="828" />
              <mxPoint x="1234" y="761" />
              <mxPoint x="1186" y="754" />
              <mxPoint x="1214" y="718" />
              <mxPoint x="1147" y="877" />
              <mxPoint x="1091" y="815" />
              <mxPoint x="1097" y="880" />
              <mxPoint x="1124" y="750" />
              <mxPoint x="1125" y="933" />
              <mxPoint x="1125" y="849" />
              <mxPoint x="1284" y="863" />
              <mxPoint x="1141" y="758" />
              <mxPoint x="807" y="671" />
              <mxPoint x="1141" y="839" />
              <mxPoint x="1170" y="816" />
              <mxPoint x="1169" y="810" />
              <mxPoint x="1137" y="799" />
              <mxPoint x="1166" y="789" />
              <mxPoint x="1135" y="806" />
              <mxPoint x="1139" y="804" />
            </Array>
          </mxGeometry>
        </mxCell>
        <mxCell id="KdBbb8YaIj5lrnZJpPdu-99" value="" style="edgeStyle=entityRelationEdgeStyle;endArrow=ERoneToMany;startArrow=ERone;endFill=1;startFill=0;rounded=0;fontSize=12;startSize=8;endSize=8;curved=1;movable=1;resizable=1;rotatable=1;deletable=1;editable=1;locked=0;connectable=1;exitX=0.998;exitY=0.164;exitDx=0;exitDy=0;exitPerimeter=0;" edge="1" parent="1">
          <mxGeometry width="100" height="100" relative="1" as="geometry">
            <mxPoint x="477" y="979" as="sourcePoint" />
            <mxPoint x="507" y="745" as="targetPoint" />
            <Array as="points">
              <mxPoint x="581" y="937" />
              <mxPoint x="402" y="1181" />
              <mxPoint x="373" y="1257" />
              <mxPoint x="532" y="1146" />
              <mxPoint x="500" y="743" />
              <mxPoint x="502" y="759" />
              <mxPoint x="477" y="1096" />
              <mxPoint x="540" y="1098" />
              <mxPoint x="534" y="968" />
              <mxPoint x="561" y="1153" />
              <mxPoint x="689" y="1189" />
              <mxPoint x="541" y="1235" />
              <mxPoint x="535" y="1151" />
              <mxPoint x="535" y="1067" />
              <mxPoint x="694" y="1081" />
              <mxPoint x="551" y="976" />
              <mxPoint x="217" y="889" />
              <mxPoint x="551" y="1057" />
              <mxPoint x="580" y="1034" />
              <mxPoint x="579" y="1028" />
              <mxPoint x="547" y="1017" />
              <mxPoint x="576" y="1007" />
              <mxPoint x="545" y="1024" />
              <mxPoint x="549" y="1022" />
            </Array>
          </mxGeometry>
        </mxCell>
        <mxCell id="KdBbb8YaIj5lrnZJpPdu-101" value="" style="edgeStyle=entityRelationEdgeStyle;endArrow=ERmany;startArrow=ERmany;endFill=0;startFill=0;rounded=0;fontSize=12;startSize=13;endSize=13;curved=1;movable=1;resizable=1;rotatable=1;deletable=1;editable=1;locked=0;connectable=1;entryX=0.014;entryY=0.166;entryDx=0;entryDy=0;entryPerimeter=0;exitX=0.922;exitY=0.631;exitDx=0;exitDy=0;exitPerimeter=0;" edge="1" parent="1" source="KdBbb8YaIj5lrnZJpPdu-93">
          <mxGeometry width="100" height="100" relative="1" as="geometry">
            <mxPoint x="1052" y="302" as="sourcePoint" />
            <mxPoint x="1184.034" y="418.9859999999999" as="targetPoint" />
            <Array as="points">
              <mxPoint x="980" y="419" />
              <mxPoint x="1067" y="401" />
              <mxPoint x="1004" y="284" />
              <mxPoint x="1027" y="292" />
              <mxPoint x="1012" y="302" />
              <mxPoint x="1002" y="295" />
              <mxPoint x="1022" y="311" />
              <mxPoint x="1113" y="440" />
              <mxPoint x="1126" y="421" />
              <mxPoint x="1216" y="354" />
              <mxPoint x="1168" y="347" />
              <mxPoint x="1196" y="311" />
              <mxPoint x="1129" y="470" />
              <mxPoint x="1073" y="408" />
              <mxPoint x="1079" y="473" />
              <mxPoint x="1106" y="343" />
              <mxPoint x="1107" y="526" />
              <mxPoint x="1107" y="442" />
              <mxPoint x="1266" y="456" />
              <mxPoint x="1123" y="351" />
              <mxPoint x="789" y="264" />
              <mxPoint x="1123" y="432" />
              <mxPoint x="1152" y="409" />
              <mxPoint x="1151" y="403" />
              <mxPoint x="1119" y="392" />
              <mxPoint x="1148" y="382" />
              <mxPoint x="1117" y="399" />
              <mxPoint x="1121" y="397" />
            </Array>
          </mxGeometry>
        </mxCell>
        <mxCell id="KdBbb8YaIj5lrnZJpPdu-103" value="&lt;table width=&quot;365&quot; style=&quot;caret-color: rgb(0, 0, 0); color: rgb(0, 0, 0); font-style: normal; font-variant-caps: normal; font-weight: 400; letter-spacing: normal; orphans: auto; text-align: start; text-transform: none; white-space: normal; widows: auto; word-spacing: 0px; -webkit-tap-highlight-color: rgba(26, 26, 26, 0.3); -webkit-text-size-adjust: auto; -webkit-text-stroke-width: 0px; text-decoration: none; border-collapse: collapse; width: 274pt;&quot;&gt;&lt;colgroup&gt;&lt;col width=&quot;162&quot; style=&quot;width: 122pt;&quot;&gt;&lt;col width=&quot;203&quot; style=&quot;width: 152pt;&quot;&gt;&lt;/colgroup&gt;&lt;tbody&gt;&lt;tr height=&quot;20&quot; style=&quot;height: 15pt;&quot;&gt;&lt;td colspan=&quot;2&quot; width=&quot;365&quot; height=&quot;20&quot; class=&quot;xl41&quot; style=&quot;padding-top: 1px; padding-right: 1px; padding-left: 1px; color: black; font-size: 11pt; font-weight: 400; font-style: normal; text-decoration: none; font-family: Calibri, sans-serif; vertical-align: bottom; border: medium; white-space: nowrap; text-align: center; background: rgb(180, 198, 231); width: 274pt; height: 15pt;&quot;&gt;Vw_Dimension_Product&lt;/td&gt;&lt;/tr&gt;&lt;tr height=&quot;23&quot; style=&quot;height: 17.25pt;&quot;&gt;&lt;td height=&quot;23&quot; class=&quot;xl93&quot; style=&quot;padding-top: 1px; padding-right: 1px; padding-left: 1px; color: black; font-size: 11pt; font-weight: 400; font-style: normal; text-decoration: none; font-family: Calibri, sans-serif; vertical-align: bottom; border: 0.5pt solid rgb(80, 80, 80); white-space: nowrap; height: 17.25pt;&quot;&gt;PK&lt;/td&gt;&lt;td width=&quot;203&quot; class=&quot;xl105&quot; style=&quot;padding-top: 1px; padding-right: 1px; padding-left: 1px; color: black; font-size: 12pt; font-weight: 700; font-style: normal; text-decoration: underline; font-family: &amp;quot;Segoe UI&amp;quot;, sans-serif; vertical-align: bottom; border-width: 0.5pt 0.5pt 0.5pt medium; border-style: solid solid solid none; border-color: rgb(80, 80, 80) rgb(80, 80, 80) rgb(80, 80, 80) currentcolor; border-image: none; white-space: normal; width: 152pt;&quot;&gt;Product_ID&lt;/td&gt;&lt;/tr&gt;&lt;tr height=&quot;23&quot; style=&quot;height: 17.25pt;&quot;&gt;&lt;td height=&quot;23&quot; class=&quot;xl103&quot; style=&quot;padding-top: 1px; padding-right: 1px; padding-left: 1px; color: black; font-size: 11pt; font-weight: 400; font-style: normal; text-decoration: none; font-family: Calibri, sans-serif; vertical-align: bottom; border-width: medium 0.5pt; border-style: none solid; border-color: currentcolor rgb(80, 80, 80); border-image: none; white-space: nowrap; height: 17.25pt;&quot;&gt;FK&lt;/td&gt;&lt;td class=&quot;xl106&quot; style=&quot;padding-top: 1px; padding-right: 1px; padding-left: 1px; color: black; font-size: 11pt; font-weight: 400; font-style: normal; text-decoration: none; font-family: Calibri, sans-serif; vertical-align: bottom; border-width: 0.5pt 0.5pt 0.5pt medium; border-style: solid solid solid none; border-color: rgb(80, 80, 80) rgb(80, 80, 80) rgb(80, 80, 80) currentcolor; border-image: none; white-space: nowrap;&quot;&gt;Vendor_ID&lt;/td&gt;&lt;/tr&gt;&lt;tr height=&quot;23&quot; style=&quot;height: 17.25pt;&quot;&gt;&lt;td height=&quot;23&quot; class=&quot;xl103&quot; style=&quot;padding-top: 1px; padding-right: 1px; padding-left: 1px; color: black; font-size: 11pt; font-weight: 400; font-style: normal; text-decoration: none; font-family: Calibri, sans-serif; vertical-align: bottom; border-width: medium 0.5pt; border-style: none solid; border-color: currentcolor rgb(80, 80, 80); border-image: none; white-space: nowrap; height: 17.25pt;&quot;&gt;&lt;/td&gt;&lt;td width=&quot;203&quot; class=&quot;xl102&quot; style=&quot;padding-top: 1px; padding-right: 1px; padding-left: 1px; color: black; font-size: 12pt; font-weight: 400; font-style: normal; text-decoration: none; font-family: &amp;quot;Segoe UI&amp;quot;, sans-serif; vertical-align: bottom; border-width: 0.5pt 0.5pt 0.5pt medium; border-style: solid solid solid none; border-color: rgb(80, 80, 80) rgb(80, 80, 80) rgb(80, 80, 80) currentcolor; border-image: none; white-space: normal; width: 152pt;&quot;&gt;Product_Name&lt;/td&gt;&lt;/tr&gt;&lt;tr height=&quot;23&quot; style=&quot;height: 17.25pt;&quot;&gt;&lt;td height=&quot;23&quot; class=&quot;xl103&quot; style=&quot;padding-top: 1px; padding-right: 1px; padding-left: 1px; color: black; font-size: 11pt; font-weight: 400; font-style: normal; text-decoration: none; font-family: Calibri, sans-serif; vertical-align: bottom; border-width: medium 0.5pt; border-style: none solid; border-color: currentcolor rgb(80, 80, 80); border-image: none; white-space: nowrap; height: 17.25pt;&quot;&gt;&lt;/td&gt;&lt;td width=&quot;203&quot; class=&quot;xl102&quot; style=&quot;padding-top: 1px; padding-right: 1px; padding-left: 1px; color: black; font-size: 12pt; font-weight: 400; font-style: normal; text-decoration: none; font-family: &amp;quot;Segoe UI&amp;quot;, sans-serif; vertical-align: bottom; border-width: 0.5pt 0.5pt 0.5pt medium; border-style: solid solid solid none; border-color: rgb(80, 80, 80) rgb(80, 80, 80) rgb(80, 80, 80) currentcolor; border-image: none; white-space: normal; width: 152pt;&quot;&gt;Product_Type_Code&lt;/td&gt;&lt;/tr&gt;&lt;tr height=&quot;23&quot; style=&quot;height: 17.25pt;&quot;&gt;&lt;td height=&quot;23&quot; class=&quot;xl103&quot; style=&quot;padding-top: 1px; padding-right: 1px; padding-left: 1px; color: black; font-size: 11pt; font-weight: 400; font-style: normal; text-decoration: none; font-family: Calibri, sans-serif; vertical-align: bottom; border-width: medium 0.5pt; border-style: none solid; border-color: currentcolor rgb(80, 80, 80); border-image: none; white-space: nowrap; height: 17.25pt;&quot;&gt;&lt;/td&gt;&lt;td width=&quot;203&quot; class=&quot;xl102&quot; style=&quot;padding-top: 1px; padding-right: 1px; padding-left: 1px; color: black; font-size: 12pt; font-weight: 400; font-style: normal; text-decoration: none; font-family: &amp;quot;Segoe UI&amp;quot;, sans-serif; vertical-align: bottom; border-width: 0.5pt 0.5pt 0.5pt medium; border-style: solid solid solid none; border-color: rgb(80, 80, 80) rgb(80, 80, 80) rgb(80, 80, 80) currentcolor; border-image: none; white-space: normal; width: 152pt;&quot;&gt;Product_Cost&lt;/td&gt;&lt;/tr&gt;&lt;tr height=&quot;23&quot; style=&quot;height: 17.25pt;&quot;&gt;&lt;td height=&quot;23&quot; class=&quot;xl103&quot; style=&quot;padding-top: 1px; padding-right: 1px; padding-left: 1px; color: black; font-size: 11pt; font-weight: 400; font-style: normal; text-decoration: none; font-family: Calibri, sans-serif; vertical-align: bottom; border-width: medium 0.5pt; border-style: none solid; border-color: currentcolor rgb(80, 80, 80); border-image: none; white-space: nowrap; height: 17.25pt;&quot;&gt;&lt;/td&gt;&lt;td width=&quot;203&quot; class=&quot;xl102&quot; style=&quot;padding-top: 1px; padding-right: 1px; padding-left: 1px; color: black; font-size: 12pt; font-weight: 400; font-style: normal; text-decoration: none; font-family: &amp;quot;Segoe UI&amp;quot;, sans-serif; vertical-align: bottom; border-width: 0.5pt 0.5pt 0.5pt medium; border-style: solid solid solid none; border-color: rgb(80, 80, 80) rgb(80, 80, 80) rgb(80, 80, 80) currentcolor; border-image: none; white-space: normal; width: 152pt;&quot;&gt;Product_Quantity&lt;/td&gt;&lt;/tr&gt;&lt;tr height=&quot;23&quot; style=&quot;height: 17.25pt;&quot;&gt;&lt;td height=&quot;23&quot; class=&quot;xl104&quot; style=&quot;padding-top: 1px; padding-right: 1px; padding-left: 1px; color: black; font-size: 11pt; font-weight: 400; font-style: normal; text-decoration: none; font-family: Calibri, sans-serif; vertical-align: bottom; border-width: medium 0.5pt 0.5pt; border-style: none solid solid; border-color: currentcolor rgb(80, 80, 80) rgb(80, 80, 80); border-image: none; white-space: nowrap; height: 17.25pt;&quot;&gt;&lt;/td&gt;&lt;td width=&quot;203&quot; class=&quot;xl102&quot; style=&quot;padding-top: 1px; padding-right: 1px; padding-left: 1px; color: black; font-size: 12pt; font-weight: 400; font-style: normal; text-decoration: none; font-family: &amp;quot;Segoe UI&amp;quot;, sans-serif; vertical-align: bottom; border-width: 0.5pt 0.5pt 0.5pt medium; border-style: solid solid solid none; border-color: rgb(80, 80, 80) rgb(80, 80, 80) rgb(80, 80, 80) currentcolor; border-image: none; white-space: normal; width: 152pt;&quot;&gt;Product_Release_Year&lt;/td&gt;&lt;/tr&gt;&lt;/tbody&gt;&lt;/table&gt;" style="text;whiteSpace=wrap;html=1;" vertex="1" parent="1">
          <mxGeometry x="1187" y="374" width="393" height="221" as="geometry" />
        </mxCell>
        <mxCell id="KdBbb8YaIj5lrnZJpPdu-104" value="" style="edgeStyle=entityRelationEdgeStyle;endArrow=ERoneToMany;startArrow=ERone;endFill=1;startFill=0;rounded=0;fontSize=12;startSize=8;endSize=8;curved=1;movable=1;resizable=1;rotatable=1;deletable=1;editable=1;locked=0;connectable=1;exitX=0.929;exitY=0.133;exitDx=0;exitDy=0;exitPerimeter=0;entryX=0.01;entryY=0.317;entryDx=0;entryDy=0;entryPerimeter=0;" edge="1" parent="1" target="KdBbb8YaIj5lrnZJpPdu-103">
          <mxGeometry width="100" height="100" relative="1" as="geometry">
            <mxPoint x="443.00300000000004" y="431.0429999999999" as="sourcePoint" />
            <mxPoint x="935" y="412" as="targetPoint" />
            <Array as="points">
              <mxPoint x="691.9" y="515" />
              <mxPoint x="512.9" y="759" />
              <mxPoint x="483.9" y="835" />
              <mxPoint x="604.9" y="160" />
              <mxPoint x="642.9" y="724" />
              <mxPoint x="610.9" y="321" />
              <mxPoint x="612.9" y="337" />
              <mxPoint x="587.9" y="674" />
              <mxPoint x="650.9" y="676" />
              <mxPoint x="644.9" y="546" />
              <mxPoint x="671.9" y="731" />
              <mxPoint x="799.9" y="767" />
              <mxPoint x="651.9" y="813" />
              <mxPoint x="645.9" y="729" />
              <mxPoint x="645.9" y="645" />
              <mxPoint x="804.9" y="659" />
              <mxPoint x="661.9" y="554" />
              <mxPoint x="327.9" y="467" />
              <mxPoint x="661.9" y="635" />
              <mxPoint x="690.9" y="612" />
              <mxPoint x="689.9" y="606" />
              <mxPoint x="657.9" y="595" />
              <mxPoint x="686.9" y="585" />
              <mxPoint x="655.9" y="602" />
              <mxPoint x="659.9" y="600" />
            </Array>
          </mxGeometry>
        </mxCell>
        <mxCell id="KdBbb8YaIj5lrnZJpPdu-105" value="&lt;table width=&quot;422&quot; style=&quot;caret-color: rgb(0, 0, 0); color: rgb(0, 0, 0); font-style: normal; font-variant-caps: normal; font-weight: 400; letter-spacing: normal; orphans: auto; text-align: start; text-transform: none; white-space: normal; widows: auto; word-spacing: 0px; -webkit-tap-highlight-color: rgba(26, 26, 26, 0.3); -webkit-text-size-adjust: auto; -webkit-text-stroke-width: 0px; text-decoration: none; border-collapse: collapse; width: 317pt;&quot;&gt;&lt;colgroup&gt;&lt;col width=&quot;227&quot; style=&quot;width: 170pt;&quot;&gt;&lt;col width=&quot;195&quot; style=&quot;width: 146pt;&quot;&gt;&lt;/colgroup&gt;&lt;tbody&gt;&lt;tr height=&quot;20&quot; style=&quot;height: 15pt;&quot;&gt;&lt;td colspan=&quot;2&quot; width=&quot;422&quot; height=&quot;20&quot; class=&quot;xl42&quot; style=&quot;padding-top: 1px; padding-right: 1px; padding-left: 1px; color: black; font-size: 11pt; font-weight: 400; font-style: normal; text-decoration: none; font-family: Calibri, sans-serif; vertical-align: bottom; border-width: medium medium 0.5pt; border-style: none none solid; border-color: currentcolor currentcolor rgb(80, 80, 80); border-image: none; white-space: nowrap; text-align: center; background: rgb(180, 198, 231); width: 317pt; height: 15pt;&quot;&gt;Dimension_Shipment_Options&lt;/td&gt;&lt;/tr&gt;&lt;tr height=&quot;23&quot; style=&quot;height: 17.25pt;&quot;&gt;&lt;td height=&quot;23&quot; class=&quot;xl36&quot; style=&quot;padding-top: 1px; padding-right: 1px; padding-left: 1px; color: black; font-size: 11pt; font-weight: 400; font-style: normal; text-decoration: none; font-family: Calibri, sans-serif; vertical-align: bottom; border-width: 0.5pt medium 0.5pt 0.5pt; border-style: solid none solid solid; border-color: rgb(80, 80, 80) currentcolor rgb(80, 80, 80) rgb(80, 80, 80); border-image: none; white-space: nowrap; height: 17.25pt;&quot;&gt;PK&lt;/td&gt;&lt;td width=&quot;195&quot; class=&quot;xl39&quot; style=&quot;padding-top: 1px; padding-right: 1px; padding-left: 1px; color: black; font-size: 12pt; font-weight: 700; font-style: normal; text-decoration: underline; font-family: &amp;quot;Segoe UI&amp;quot;, sans-serif; vertical-align: bottom; border: 0.5pt solid rgb(80, 80, 80); white-space: normal; width: 146pt;&quot;&gt;Shipment_ID&lt;/td&gt;&lt;/tr&gt;&lt;tr height=&quot;23&quot; style=&quot;height: 17.25pt;&quot;&gt;&lt;td height=&quot;23&quot; class=&quot;xl16&quot; style=&quot;padding-top: 1px; padding-right: 1px; padding-left: 1px; color: black; font-size: 11pt; font-weight: 400; font-style: normal; text-decoration: none; font-family: Calibri, sans-serif; vertical-align: bottom; border-width: medium medium medium 0.5pt; border-style: none none none solid; border-color: currentcolor currentcolor currentcolor rgb(80, 80, 80); border-image: none; white-space: nowrap; height: 17.25pt;&quot;&gt;&lt;/td&gt;&lt;td width=&quot;195&quot; class=&quot;xl19&quot; style=&quot;padding-top: 1px; padding-right: 1px; padding-left: 1px; color: black; font-size: 12pt; font-weight: 400; font-style: normal; text-decoration: none; font-family: &amp;quot;Segoe UI&amp;quot;, sans-serif; vertical-align: bottom; border: 0.5pt solid rgb(80, 80, 80); white-space: normal; width: 146pt;&quot;&gt;Shipment_Type_Code&lt;/td&gt;&lt;/tr&gt;&lt;tr height=&quot;23&quot; style=&quot;height: 17.25pt;&quot;&gt;&lt;td height=&quot;23&quot; class=&quot;xl17&quot; style=&quot;padding-top: 1px; padding-right: 1px; padding-left: 1px; color: black; font-size: 11pt; font-weight: 400; font-style: normal; text-decoration: none; font-family: Calibri, sans-serif; vertical-align: bottom; border-width: medium medium 0.5pt 0.5pt; border-style: none none solid solid; border-color: currentcolor currentcolor rgb(80, 80, 80) rgb(80, 80, 80); border-image: none; white-space: nowrap; height: 17.25pt;&quot;&gt;&lt;/td&gt;&lt;td width=&quot;195&quot; class=&quot;xl19&quot; style=&quot;padding-top: 1px; padding-right: 1px; padding-left: 1px; color: black; font-size: 12pt; font-weight: 400; font-style: normal; text-decoration: none; font-family: &amp;quot;Segoe UI&amp;quot;, sans-serif; vertical-align: bottom; border: 0.5pt solid rgb(80, 80, 80); white-space: normal; width: 146pt;&quot;&gt;Shipment_Cost&lt;/td&gt;&lt;/tr&gt;&lt;/tbody&gt;&lt;/table&gt;" style="text;whiteSpace=wrap;html=1;" vertex="1" parent="1">
          <mxGeometry x="44.0033333333335" y="937.9966666666669" width="451" height="121" as="geometry" />
        </mxCell>
      </root>
    </mxGraphModel>
  </diagram>
</mxfile>
